<?xml version="1.0" encoding="UTF-8"?>
<svg xmlns="http://www.w3.org/2000/svg" width="45px" height="45px" viewBox="0 0 45 45" version="1.1">
<g id="surface1">
<path fill="white" d="M 9.980469 41.273438 C 9.980469 43.183594 8.433594 44.730469 6.523438 44.730469 C 4.613281 44.730469 3.0625 43.183594 3.0625 41.273438 C 3.0625 39.363281 4.613281 37.8125 6.523438 37.8125 C 8.433594 37.8125 9.980469 39.363281 9.980469 41.273438 Z M 9.980469 41.273438 "/>
<path fill="white" d="M 3.0625 31.882812 L 3.0625 34.847656 L 21.136719 34.847656 C 20.554688 33.933594 20.082031 32.9375 19.746094 31.882812 Z M 3.0625 31.882812 "/>
<path fill="white" d="M 31.929688 18.160156 C 26.511719 18.160156 22.101562 22.566406 22.101562 27.984375 C 22.101562 33.40625 26.511719 37.8125 31.929688 37.8125 C 37.347656 37.8125 41.757812 33.40625 41.757812 27.984375 C 41.757812 22.566406 37.347656 18.160156 31.929688 18.160156 Z M 38.007812 29.46875 L 33.414062 29.46875 L 33.414062 34.066406 L 30.449219 34.066406 L 30.449219 29.46875 L 25.851562 29.46875 L 25.851562 26.503906 L 30.449219 26.503906 L 30.449219 21.90625 L 33.414062 21.90625 L 33.414062 26.503906 L 38.007812 26.503906 Z M 38.007812 29.46875 "/>
<path fill="white" d="M 38.910156 0.269531 L 37.695312 7.679688 L 0 7.679688 L 2.558594 23.339844 C 2.839844 25.050781 4.484375 26.449219 6.214844 26.449219 L 19.230469 26.449219 C 19.992188 20.117188 25.398438 15.195312 31.929688 15.195312 C 34.585938 15.195312 37.058594 16.007812 39.105469 17.402344 L 41.429688 3.234375 L 45 3.234375 L 45 0.269531 Z M 38.910156 0.269531 "/>
<path fill="white" d="M 31.929688 40.777344 C 30.730469 40.777344 29.566406 40.613281 28.464844 40.300781 C 28.375 40.609375 28.324219 40.933594 28.324219 41.273438 C 28.324219 43.183594 29.875 44.730469 31.785156 44.730469 C 33.695312 44.730469 35.246094 43.183594 35.246094 41.273438 C 35.246094 40.960938 35.203125 40.660156 35.125 40.375 C 34.105469 40.636719 33.03125 40.777344 31.929688 40.777344 Z M 31.929688 40.777344 "/>
</g>
</svg>
