<?xml version="1.0" encoding="UTF-8"?>
<svg xmlns="http://www.w3.org/2000/svg" width="15px" height="15px" viewBox="0 0 48 48" version="1.1">
<g id="surface1">
<path  fill="#000" d="M 39.128906 3.648438 L 29.246094 3.648438 L 29.246094 2.664062 C 29.246094 1.195312 28.066406 0 26.617188 0 L 21.382812 0 C 19.933594 0 18.753906 1.195312 18.753906 2.664062 L 18.753906 3.648438 L 8.871094 3.648438 C 7.40625 3.648438 6.214844 4.832031 6.214844 6.285156 L 6.214844 8.027344 C 6.214844 9.117188 6.886719 10.058594 7.84375 10.457031 C 8.148438 16.496094 9.902344 45.6875 9.980469 46.996094 C 10.015625 47.5625 10.480469 48 11.046875 48 L 36.953125 48 C 37.519531 48 37.984375 47.5625 38.019531 46.996094 C 38.097656 45.6875 39.851562 16.496094 40.15625 10.457031 C 41.113281 10.058594 41.785156 9.117188 41.785156 8.027344 L 41.785156 6.285156 C 41.785156 4.832031 40.59375 3.648438 39.128906 3.648438 Z M 20.886719 2.664062 C 20.886719 2.371094 21.109375 2.132812 21.382812 2.132812 L 26.617188 2.132812 C 26.890625 2.132812 27.113281 2.371094 27.113281 2.664062 L 27.113281 3.648438 L 20.886719 3.648438 Z M 8.347656 6.285156 C 8.347656 6.007812 8.582031 5.78125 8.871094 5.78125 L 39.128906 5.78125 C 39.417969 5.78125 39.652344 6.007812 39.652344 6.285156 L 39.652344 8.027344 C 39.652344 8.304688 39.417969 8.527344 39.128906 8.527344 L 8.871094 8.527344 C 8.582031 8.527344 8.347656 8.304688 8.347656 8.027344 Z M 35.949219 45.867188 L 12.050781 45.867188 C 11.734375 40.648438 10.300781 16.660156 9.992188 10.660156 L 38.007812 10.660156 C 37.699219 16.660156 36.261719 40.648438 35.949219 45.867188 Z M 35.949219 45.867188 "/>
<path fill="#000" d="M 24 14.496094 C 23.410156 14.496094 22.933594 14.972656 22.933594 15.5625 L 22.933594 42.398438 C 22.933594 42.988281 23.410156 43.464844 24 43.464844 C 24.589844 43.464844 25.066406 42.988281 25.066406 42.398438 L 25.066406 15.5625 C 25.066406 14.972656 24.589844 14.496094 24 14.496094 Z M 24 14.496094 "/>
<path fill="#000" d="M 16.792969 15.550781 C 16.761719 14.960938 16.257812 14.507812 15.671875 14.539062 C 15.082031 14.570312 14.632812 15.070312 14.660156 15.660156 L 16.0625 42.453125 C 16.089844 43.023438 16.5625 43.464844 17.125 43.464844 C 17.144531 43.464844 17.164062 43.464844 17.183594 43.460938 C 17.769531 43.433594 18.222656 42.929688 18.191406 42.34375 Z M 16.792969 15.550781 "/>
<path fill="#000" d="M 32.328125 14.539062 C 31.734375 14.503906 31.238281 14.960938 31.207031 15.550781 L 29.808594 42.34375 C 29.777344 42.929688 30.230469 43.433594 30.816406 43.460938 C 30.835938 43.464844 30.855469 43.464844 30.875 43.464844 C 31.4375 43.464844 31.910156 43.023438 31.9375 42.453125 L 33.339844 15.660156 C 33.367188 15.070312 32.917969 14.570312 32.328125 14.539062 Z M 32.328125 14.539062 "/>
</g>
</svg>
